<svg width="41" height="30" viewBox="0 0 41 30" fill="none" xmlns="http://www.w3.org/2000/svg">
<path d="M38.2291 9.71638e-07H2.77092C2.05722 0.0293527 1.38258 0.247955 0.873209 0.614913C0.363837 0.981871 0.0546248 1.47205 0.00341667 1.99374L0 27.9724C0.0990833 29.0674 1.21633 29.9011 2.65817 29.9974C2.68369 29.9995 2.70937 30.0003 2.73504 29.9999H38.2633C38.2878 29.9999 38.3123 29.9991 38.3367 29.9974C39.0634 29.9466 39.7384 29.6999 40.2306 29.3054C40.7227 28.9109 40.997 28.3966 41 27.8624V2.13749C40.9971 1.59794 40.7171 1.07889 40.2155 0.683393C39.7139 0.287891 39.0274 0.0448461 38.2923 0.00250096C38.2713 0.000802081 38.2502 -3.25651e-05 38.2291 9.71638e-07ZM38.2291 0.619999C38.7524 0.648143 39.2416 0.820363 39.5982 1.10196C39.9549 1.38355 40.1524 1.75358 40.151 2.13749V27.8624C40.151 28.6586 39.319 29.3124 38.265 29.3799H2.73675C2.24423 29.3486 1.78321 29.1895 1.43678 28.9315C1.09036 28.6734 0.881312 28.3333 0.847333 27.9724V2.03499C0.878543 1.66846 1.09094 1.32276 1.44489 1.0624C1.79884 0.802028 2.27016 0.644782 2.77092 0.619999H38.2291ZM8.19146 10.325V19.5299H4.93708V10.325H8.19146ZM19.3588 10.325V19.5299H16.5213V13.3175L15.375 19.5287H13.3472L12.1531 13.4512L12.1428 19.5287H9.29333V10.325H13.5095C13.6376 10.885 13.764 11.5375 13.9024 12.2925L14.3671 14.6312L15.1188 10.325H19.3588ZM24.4445 11.9875C24.5089 12.0133 24.5642 12.0496 24.6063 12.0936C24.6483 12.1376 24.676 12.1881 24.6871 12.2412C24.735 12.36 24.7469 12.63 24.7469 13.0462V16.6149C24.7469 17.2249 24.6871 17.5974 24.5829 17.7337C24.4804 17.8774 24.19 17.9462 23.7253 17.9462V11.9C24.0738 11.9 24.3164 11.925 24.4445 11.985V11.9875ZM24.4104 19.5299C25.186 19.5299 25.777 19.4962 26.1597 19.4374C26.5526 19.3774 26.8772 19.2674 27.1335 19.1062C27.4106 18.9389 27.605 18.7096 27.687 18.4537C27.7912 18.1737 27.8612 17.6224 27.8612 16.8012V13.5712C27.8612 12.6987 27.8151 12.1137 27.7348 11.8175C27.6651 11.5173 27.4796 11.238 27.2001 11.0125C26.9114 10.7662 26.4826 10.5962 25.9274 10.4862C25.3807 10.385 24.4685 10.325 22.9036 10.325H20.471V19.5299H24.4087H24.4104ZM33.1912 17.3012C33.1912 17.7424 33.157 18.0212 33.0973 18.1399C33.0409 18.2587 32.7727 18.3174 32.5762 18.3174C32.3917 18.3174 32.2516 18.2587 32.1935 18.1487C32.1252 18.0387 32.091 17.7762 32.091 17.3699V14.9362C32.091 14.52 32.1252 14.2575 32.1833 14.1562C32.2414 14.0562 32.3678 14.0037 32.554 14.0037C32.7505 14.0037 33.0153 14.055 33.0853 14.1812C33.1553 14.3 33.1895 14.555 33.1895 14.9362V17.3012H33.1912ZM28.9631 10.3262V19.5299H31.8929L32.0893 18.9449C32.3558 19.1824 32.6462 19.3612 32.9708 19.4799C33.2817 19.5899 33.7567 19.6487 34.1291 19.6487C34.6484 19.6487 35.0909 19.5549 35.4616 19.3524C35.8041 19.1851 36.0574 18.9366 36.1791 18.6487C36.2713 18.3774 36.3294 17.9699 36.3294 17.4187V14.8349C36.3399 14.4728 36.3205 14.1104 36.2713 13.75C36.2293 13.5613 36.13 13.3819 35.9809 13.225C35.7939 13.0403 35.5417 12.8965 35.2515 12.8087C34.5092 12.6132 33.6958 12.6189 32.9589 12.825C32.6262 12.9474 32.3305 13.1174 32.0893 13.325V10.325H28.9631V10.3262Z" fill="#7A6762"/>
</svg>
